<svg width="166" height="174" viewBox="0 0 166 174" fill="none" xmlns="http://www.w3.org/2000/svg">
    <path d="M28.292 36.5957C73.4537 16.7123 126.183 37.2045 146.067 82.3663C153.041 98.2072 155.048 114.979 152.765 130.938"
          stroke="#9AD163" stroke-dasharray="2 2"/>
    <g clip-path="url(#clip0_1584_18961)">
        <path d="M38.7753 111.602L30.3195 93.2196L31.848 89.7069L34.0539 86.0304C37.6077 85.2951 45.0096 83.3833 46.1861 81.6184C47.3625 79.8535 46.6763 72.7951 46.1861 69.4865L49.8625 68.0159C48.7596 68.1385 46.4802 67.1336 46.1861 62.1337C45.8184 55.8837 36.2597 40.0748 31.848 40.0748C27.4363 40.0748 23.0246 39.7071 14.2012 40.0748C5.37773 40.4424 -0.50456 53.3099 -0.50456 60.6628C-0.50456 66.545 5.86792 72.1822 9.05415 74.2655V81.6184C4.76499 85.4175 -2.52934 94.7803 -4.29403 101.839C-5.80329 107.876 -6.15978 115.981 -5.94116 123.366M-4.29397 139.91C-5.03095 136.537 -5.73695 130.265 -5.94116 123.366M14.2012 101.839C14.2012 105.515 32.1711 110.163 35.4422 110.499C46.1861 111.602 61.1772 111.602 63.7507 117.852M-5.94116 123.366C0.500583 127.901 15.2222 134.69 24.0455 134.396C35.0745 134.028 54.1922 134.396 66.3244 138.44C74.293 141.096 77.7213 136.601 79.1919 134.396"
              stroke="#435FE1"/>
        <path d="M70.629 137.794C74.3687 137.527 86.5482 134.993 87.2874 129.157C88.0266 123.322 89.8235 112.061 81.6756 103.247C73.5276 94.4327 49.0996 67.8023 49.1045 64.8382C49.1094 61.8742 44.5928 53.4513 43.0002 51.3967C41.4075 49.342 32.0002 34.9115 29.3583 37.4115C28.0681 38.6324 33.5593 57.0339 34.5002 59.4115M35.5002 60.4115C35.2701 59.9494 34.7277 59.9864 34.5002 59.4115M34.5002 59.4115C33.7601 58.8237 27.0375 57.0772 26.6348 57.9156C26.1315 58.9636 27.9091 60.2248 28.5 61.4114C29.0909 62.598 37.0174 66.6424 38.2915 68.2861C39.5656 69.9298 60.0034 110.507 62.0069 112.244C63.6098 113.632 65.6818 114.438 66.5174 114.668"
              stroke="#435FE1" stroke-dasharray="4 4"/>
        <path d="M76.549 138.014C88.1923 135.095 126.941 130.501 129.539 131.928C132.137 133.355 140.933 133.823 143.5 133.411C146.067 133 158 131.928 158 129.411C158 127.635 141.538 122.727 139 122.411C139.871 122.044 147.542 118.167 147 117.411C146 116.017 144.324 116.962 143 116.911C141.675 116.86 133.757 120.458 131.704 120.787C129.65 121.116 80.7454 116.522 78.0955 116.44C72.396 116.266 64.095 117.438 64.095 117.438"
              stroke="#435FE1" stroke-dasharray="4 4"/>
    </g>
    <defs>
        <clipPath id="clip0_1584_18961">
            <rect width="155" height="137" fill="white" transform="translate(0 37)"/>
        </clipPath>
    </defs>
</svg>
