<svg width="153" height="132" viewBox="0 0 153 132" fill="none" xmlns="http://www.w3.org/2000/svg">
<path d="M122.824 103.627C120.305 104.731 118.309 105.036 116.599 104.817M134.86 130.165C134.86 119.107 135.526 108.051 136.313 105.336C137.973 99.6071 138.29 89.687 140.463 85.3053C143.812 78.5531 153.951 69.4537 151.669 67.1527C148.712 64.1722 139.09 80.3696 137.043 79.4318C132.95 79.4318 145.587 54.3617 142.746 53.799C136.233 52.5091 134.997 74.5552 131.09 74.5552C127.182 74.5552 132.084 49 127.805 49C121.664 49 122.717 74.5552 121.042 74.5552C119.367 74.5552 113.84 55.0555 108.092 56.0941C104.798 56.6893 111.579 70.2724 114.109 79.4318C115.009 82.6905 112.179 88.6067 112.449 91.1476C108.675 87.6895 96.0875 85.3731 95.0176 89.687C94.5312 91.6483 104.271 94.4707 108.092 99.6071C111.008 101.965 113.256 104.39 116.599 104.817M116.599 104.817C116.599 104.817 116.872 111.582 116.599 115.768C116.202 121.864 114.109 131 114.109 131" stroke="#435FE1" stroke-width="0.5" stroke-linecap="round" stroke-linejoin="round"/>
<path d="M9.41939 130.171L12.4997 107.786C8.66644 101.776 1 89.257 1 87.2672C1 84.7801 7.98194 76.6968 11.0622 75.4532C11.9143 75.1092 13.4189 74.7782 15.1692 74.5284M11.0622 87.889C11.0622 86.9925 13.357 85.7997 16.196 84.398M16.196 84.398C16.196 84.398 19.7153 85.9057 21.7405 87.2672C24.1434 88.8827 27.2849 92.2033 27.2849 92.2033M16.196 84.398C19.2301 82.8999 22.8858 81.1633 25.0261 79.2947M35.2936 131C35.499 125.611 36.4025 113.548 38.3739 108.408C40.8381 101.983 45.5612 87.4745 44.9451 81.4639C44.3291 75.4532 43.9184 75.0387 41.8649 75.0387C41.3105 75.0387 40.3372 75.0085 39.1953 74.9807M35.9097 82.9147C34.5407 83.122 31.8925 84.9873 32.008 86.8527C32.2134 90.169 30.1599 93.2779 28.3117 93.0707C26.4635 92.8634 25.6421 86.2309 25.4368 84.398C25.3972 84.045 25.5557 83.527 25.8432 82.9147M7.98194 77.1113C7.77659 74.3478 7.36588 68.5306 7.36588 67.3699C7.36588 65.919 10.2408 63.2246 12.705 63.0173C14.6764 62.8515 15.8537 63.9155 16.196 64.4682M16.196 64.4682C17.0174 64.1918 19.1941 63.6391 21.3298 63.6391C23.4654 63.6391 25.5502 65.9095 26.3256 67.0446M16.196 64.4682C15.8537 64.9518 15.1692 66.2092 15.1692 67.3699C15.1692 68.5306 15.1692 72.6258 15.1692 74.5284M39.1953 74.9807C36.1072 74.9055 31.7863 74.8479 31.1866 75.4532C30.5234 76.1226 27.0488 80.3475 25.8432 82.9147M39.1953 74.9807C37.2787 71.6838 32.7062 65.2143 29.7492 65.7118C28.0504 65.9975 27.0023 66.5022 26.3256 67.0446M25.0261 74.4532C25.8911 74.6712 26.4878 74.9963 26.6689 75.4532C27.191 76.7707 26.4386 78.0614 25.0261 79.2947M25.0261 74.4532C24.8892 72.8521 24.6975 69.484 25.0261 68.8207C25.248 68.3727 25.53 67.6825 26.3256 67.0446M25.0261 74.4532C22.7177 73.8717 18.4988 74.0532 15.1692 74.5284M25.0261 79.2947C24.8179 80.5014 24.6898 82.9147 25.8432 82.9147" stroke="#435FE1" stroke-width="0.5"/>
<path d="M122.672 51.1873C114.531 37.2828 100.495 26.9396 83.3336 24.0406C57.8685 19.7388 33.519 33.1789 23 55.3513" stroke="#9AD163" stroke-dasharray="2 2"/>
<path d="M60 105C59.4477 105 59 105.448 59 106C59 106.552 59.4477 107 60 107V105ZM91 106L81 100.226V111.774L91 106ZM60 107H82V105H60V107Z" fill="#435FE1"/>
</svg>
