<svg width="135" height="135" viewBox="0 0 135 135" fill="none" xmlns="http://www.w3.org/2000/svg">
<path d="M40.6444 92.6853C43.5295 90.3912 45.4256 86.1947 45.4256 81.7396C45.4256 74.9662 38.6522 68.9897 35.4647 69.3881C29.2889 69.3881 24.1093 75.7629 24.1093 81.7396C24.1093 85.87 26.8685 90.2856 30.4143 92.6853M40.6444 92.6853C39.143 93.879 37.3739 94.5576 35.4647 94.4894C33.7415 94.4279 31.9993 93.758 30.4143 92.6853M40.6444 92.6853C42.2381 92.3569 46.0232 91.5009 48.4139 90.704C51.4021 89.7079 56.1834 89.7079 58.9724 89.3095C61.7615 88.9111 65.1482 84.1298 65.1482 81.7396C65.1482 79.3494 62.7575 75.9619 61.1638 75.7627C59.5701 75.5635 56.781 73.1729 54.5896 72.177C52.3982 71.1811 47.617 62.6145 33.4725 62.2161C19.328 61.8177 12.9531 70.384 10.3632 72.177C7.97263 72.5757 1 77.7549 1 81.7396C1 85.7244 4.98436 89.3095 6.37888 89.9072C7.77341 90.5048 20.7226 89.3095 23.3124 89.9072C25.3843 90.3853 28.9103 91.9584 30.4143 92.6853" stroke="#435FE1"/>
<path d="M54.5015 88.3155L127.247 130.627C127.821 130.839 129.123 131.171 129.736 130.807C130.502 130.353 118.537 121.705 118.082 120.939C117.628 120.173 122.211 123.359 122.534 122.856C122.857 122.354 123.468 122.509 122.678 121.528C121.889 120.546 112.028 115.621 110.353 114.543C108.677 113.465 100.183 104.208 96.617 102.387C93.0509 100.566 89.6753 100.29 84.3144 96.8399C78.9535 93.3901 82.6774 91.2846 74.4569 85.2839C67.8805 80.4834 65.3507 79.1871 64.9078 79.139" stroke="#435FE1" stroke-dasharray="2 2"/>
<path d="M66.3446 82.4849L38.0983 3.21176C37.7963 2.67923 37.0164 1.58467 36.3135 1.46665C35.4349 1.31912 38.9915 15.648 38.844 16.5266C38.6965 17.4052 37.2529 12.0135 36.6815 12.1885C36.11 12.3636 35.7445 11.8505 35.7137 13.1101C35.6829 14.3697 40.0354 24.4959 40.619 26.4007C41.2026 28.3055 41.7144 40.8585 43.2626 44.5513C44.8107 48.2442 47.2103 50.6344 49.0777 56.7297C50.9452 62.825 46.7419 62.0292 49.1468 71.9187C51.0706 79.8303 52.166 82.4534 52.4732 82.776" stroke="#435FE1" stroke-dasharray="2 2"/>
<path d="M40.9722 17.3689C46.2925 16.0645 51.8535 15.3728 57.576 15.3728C95.9545 15.3728 127.066 46.4847 127.066 84.8631C127.066 90.3247 123.239 110.892 116.612 121.537" stroke="#9AD163" stroke-dasharray="2 2"/>
</svg>
