<svg width="130" height="121" viewBox="0 0 130 121" fill="none" xmlns="http://www.w3.org/2000/svg">
<path d="M98.1861 118.03C97.0443 111.637 90.1627 108.96 82.7623 109.21C76.8419 109.409 62.0511 108.377 55.3957 107.836C51.0897 112.881 35.9476 114.097 31.3958 110.943C29.8862 109.896 39.0412 108.792 39.5941 107.2M43.7551 105.932C40.9354 107.971 40.7083 103.992 39.5941 107.2M39.5941 107.2C35.9264 107.323 24.5208 107.15 23.0407 107.2C21.1906 107.262 9.60052 106.906 9.60058 104.321C9.60064 101.736 21.175 99.1342 23.9192 98.1228C26.6634 97.1115 102.941 89.6935 105.716 89.5999" stroke="#435FE1" stroke-dasharray="2 2"/>
<path d="M22.0974 56.9094C28.2553 63.821 35.8735 67.5137 36.9543 67.5137C38.1874 67.5137 44.8169 63.9609 49.5764 54.6041M22.0974 56.9094C17.8201 52.1085 14.2474 45.7545 14.0597 38.0062C13.6018 19.1029 24.5912 8.95972 35.1227 8.95972C40.6174 9.42077 56.1857 13.5703 54.3542 36.623C53.7557 44.1553 51.8863 50.0632 49.5764 54.6041M22.0974 56.9094V73.9684C11.7867 75.8127 -10.8495 80.9765 -18.9084 86.878C-28.982 94.2549 -29.4399 97.9433 -29.4399 103.476C-29.4399 109.009 -29.4399 171.712 -29.4399 183.238C-29.4399 194.765 -23.4874 212.285 -24.861 226.578C-25.96 238.012 -21.3505 245.173 -18.9084 247.325C-15.3979 249.63 -8.19377 254.333 -7.46115 254.702C-6.54537 255.163 -5.17169 247.786 -7.46115 245.02C-9.75061 242.253 -17.0769 231.649 -17.0769 230.727C-17.0769 229.805 -7.46115 243.176 -5.62958 241.331C-3.79802 239.487 -12.0401 222.428 -12.9558 217.818C-13.8716 213.207 -8.83482 165.257 -8.83482 159.264C-8.83482 153.27 -4.25591 134.367 -5.62958 126.529C-6.72852 120.258 -8.83482 113.465 -9.75061 110.853C-6.85063 117.308 -1.05067 131.969 -1.05067 138.977C-1.05067 145.985 -1.05067 187.695 -1.05067 207.674H77.2488C77.2488 181.855 77.2488 128.281 77.2488 120.535C77.2488 112.789 81.2172 107.779 83.2014 106.242M49.5764 54.6041L51.6069 73.9684H75.4172" stroke="#435FE1"/>
<path d="M74.8813 73.6006C89.8798 75.1433 95.9793 91.6213 101.122 90.8808C107.55 89.9552 110.457 83.1679 110.457 75.7632C110.457 69.8395 111.988 55.0919 112.753 48.4585C107.856 43.9849 107.152 28.8103 110.457 24.3675C111.554 22.894 112.349 32.0811 113.922 32.6874M115.049 36.8887C113.105 34.0019 117.091 33.9091 113.922 32.6874M113.922 32.6874C113.922 29.0176 115.049 17.481 115.049 16.0001C115.049 14.1489 117.122 4.90493 119.042 5.11989C122.242 5.47816 122.604 14.5507 123.522 17.3275C124.44 20.1042 129.282 96.5888 129.282 99.3655C129.282 102.142 126.986 110.473 123.772 111.861C120.558 113.249 114.101 118.498 107.703 116.952C81.9214 110.721 86.2735 104.193 83.2014 106.241" stroke="#435FE1" stroke-dasharray="2 2"/>
<path d="M11.8023 103.306C5.28406 55.0569 39.1135 10.6593 87.3625 4.14109C98.1485 2.68395 108.742 3.24314 118.763 5.52902" stroke="#9AD163" stroke-dasharray="2 2"/>
</svg>
