<svg width="145" height="184" viewBox="0 0 145 184" fill="none" xmlns="http://www.w3.org/2000/svg">
<path d="M39.5187 85.8263C39.6126 86.8141 37.1283 91.1172 36.5991 92.0338C35.9376 93.1795 33.0907 100.795 32.3189 102.132C31.5471 103.468 29.1297 112.257 29.4645 113.978C29.7992 115.699 26.0984 117.891 25.3266 119.228C24.5549 120.564 17.0712 141.196 16.1334 142.437C15.1956 143.678 10.2806 147.206 8.9576 149.497C7.89918 151.33 7.69 152.076 8.0779 152.555C13.1678 145.277 6.9575 156.796 7.0573 158.157C7.1571 159.518 11.923 156.709 14.4372 152.661C17.5801 147.601 14.6483 146.927 16.9663 144.446C19.2843 141.965 28.7727 129.365 30.5367 126.31C32.3007 123.254 33.888 113.986 35.3784 112.555C36.8688 111.124 48.6024 94.6354 50.8101 92.3454C53.0179 90.0554 53.1664 80.2112 52.7254 80.9751" stroke="#435FE1" stroke-dasharray="2 2"/>
<path d="M54.594 78.7586C54.33 77.8021 56.0294 73.133 56.3914 72.1384C56.8439 70.8952 58.3251 62.9012 58.853 61.4508C59.3809 60.0003 60.2355 50.9252 59.607 49.2885C58.9784 47.6517 62.2424 44.8506 62.7703 43.4002C63.2983 41.9497 67.0856 20.332 67.7937 18.9471C68.5018 17.5623 72.7295 13.2346 73.6345 10.7482C74.3585 8.759 74.435 7.98822 73.9699 7.58428C70.221 15.635 74.3367 3.21271 74.0021 1.88968C73.6675 0.566652 69.4619 4.16091 67.6887 8.58409C65.4723 14.1131 68.4766 14.2679 66.6246 17.1137C64.7727 19.9595 57.6164 34.0153 56.4097 37.3306C55.203 40.6459 55.2493 50.0489 54.03 51.7171C52.8108 53.3852 44.1186 71.6607 42.3421 74.2993C40.5655 76.9378 42.1287 86.6583 42.4303 85.8294" stroke="#435FE1" stroke-dasharray="2 2"/>
<path d="M40.8489 57.3621C39.7142 57.2794 37.4448 57.6596 37.4448 59.8418C37.4448 62.0239 39.7142 62.2391 40.8489 62.0739" stroke="#435FE1"/>
<path d="M47.6803 79.566L48.6901 77.2498L50.1475 74.8257C52.4956 74.3409 57.3859 73.0803 58.1632 71.9165C58.9405 70.7528 58.4871 66.0987 58.1632 63.9172L60.5922 62.9475C59.8635 63.0283 58.3575 62.3657 58.1632 59.0689C57.9203 54.9479 51.6049 44.524 48.6901 44.524C45.7754 44.524 42.8606 44.2816 37.031 44.524C31.2014 44.7664 27.315 53.2508 27.315 58.0991C27.315 61.9777 31.5253 65.6946 33.6304 67.0683V71.9165C30.7966 74.4215 24.8374 80.5951 23.6715 85.2494C22.2141 91.0673 24.1573 109.248 25.1289 112.4C25.9062 114.921 26.4244 123.47 26.5864 127.429L56.22 128.156C56.22 128.156 55.2243 100.279 54.9673 97.7469C54.7102 95.2148 53.267 91.6866 53.267 91.6866" stroke="#435FE1"/>
<path d="M12.2546 153.728C52.2613 170.134 97.9936 151.003 114.401 110.996C130.808 70.9896 111.676 25.2573 71.6694 8.85034" stroke="#9AD163" stroke-dasharray="2 2"/>
</svg>
