<svg width="137" height="138" viewBox="0 0 137 138" fill="none" xmlns="http://www.w3.org/2000/svg">
<path d="M120.174 53.7837C112.798 39.4587 99.3428 28.3705 82.3637 24.5463C57.1689 18.8717 32.1273 30.9733 20.4229 52.5435" stroke="#9AD163" stroke-dasharray="2 2"/>
<path d="M16.5133 137C17.1323 131.784 17.9988 120.651 16.5133 117.845C14.6565 114.338 4.31096 107.324 3.78042 104.086C3.24988 100.849 -1.25982 90.5971 2.45395 89.518C4.26052 88.993 6.00435 91.1494 7.47165 93.5647M23.9409 104.626C21.2882 99.2302 12.269 99.7698 10.9427 99.2302C10.2615 98.9531 9.02068 96.1146 7.47165 93.5647M7.47165 93.5647C7.47165 87.8993 7.47165 76.0827 7.47165 74.1403C7.47165 71.7122 8.82039 66.5863 11.4731 66.5863C12.9356 66.5863 13.9949 67.6524 14.6511 68.7446M15.7174 89.2482C15.629 83.4029 15.4521 71.5504 15.4521 70.9029C15.4521 70.5397 15.1851 69.6335 14.6511 68.7446M14.6511 68.7446C14.6528 66.4964 15.346 62 18.1048 62C20.5793 62 21.6879 64.2225 22.1168 65.777M23.1449 84.6619C22.8797 79.0863 22.3491 67.7734 22.3491 67.1259C22.3491 66.8973 22.2856 66.3889 22.1168 65.777M22.1168 65.777C22.4595 64.7878 23.5694 62.8633 25.2671 63.0791C27.3892 63.3489 28.9808 66.5863 29.5114 68.7446C29.625 69.2067 29.7158 70.1815 29.7878 71.4424M30.0419 83.5827C30.0419 80.4873 29.985 74.8932 29.7878 71.4424M29.7878 71.4424C30.4031 70.9029 31.8458 69.8777 32.6946 70.0935C33.7557 70.3633 34.5515 72.5216 34.8168 74.1403C35.082 75.759 35.3473 87.6295 35.8778 89.518C36.4084 91.4065 38 97.6115 38 105.705C38 109.633 35.8778 114.608 35.8778 116.227C35.8778 117.522 36.5852 130.615 36.9389 137" stroke="#435FE1"/>
<path d="M122.905 137C122.272 131.79 121.385 120.668 122.905 117.865C124.806 114.362 135.123 106.546 135.666 103.312C136.209 100.078 136.579 79.4323 132.68 78.7872C129.422 78.2482 130.652 90.9276 129.15 93.3404C129.15 87.6808 129.15 76.1461 129.15 74.2057C129.15 71.7801 129.15 65.3121 126.435 65.3121C124.938 65.3121 123.721 65.8511 123.72 68.2766M123.72 89.2979C123.81 83.4586 123.72 72.1574 123.72 71.5106C123.72 71.1479 123.722 70.5225 123.72 68.2766M123.72 68.2766C123.718 66.0307 122.471 61 119.648 61C117.115 61 117.17 63.695 117.17 65.8511M116.118 84.7163C116.389 79.1466 117.17 68.9234 117.17 68.2766C117.17 68.0482 117.17 67.1986 117.17 65.8511M117.17 65.8511C116.82 64.8629 115.684 62.9404 113.946 63.156C111.774 63.4255 110.145 66.6596 109.602 68.8156C109.486 69.2772 109.133 72.946 109.059 74.2057M109.059 83.6383C109.059 80.546 108.857 77.6528 109.059 74.2057M109.059 74.2057C108.429 73.6667 106.941 70.4865 106.073 70.7021C104.987 70.9716 104.443 72.5887 104.172 74.2057C103.9 75.8227 103.217 87.6097 103.086 89.5674C102.543 97.6525 102.619 98.2539 103.629 106.277C104.172 110.589 104.987 114.901 104.987 116.518C104.987 117.811 102.362 130.622 102 137" stroke="#435FE1"/>
<path d="M75.0327 95.6644C78.8945 95.4168 80.9606 95.2008 84.4578 94.6787C83.8677 93.2355 83.3139 92.4291 81.9323 90.9999" stroke="#4147D5" stroke-width="1.5" stroke-linecap="round" stroke-linejoin="round"/>
<path d="M88 102.019C86.7988 103.466 84.4551 104.727 81.3048 105.621C78.1545 106.516 74.3593 106.999 70.4632 107C66.5671 107.001 62.7701 106.521 59.6163 105.628C56.4626 104.735 54.114 103.475 52.9073 102.029C51.7005 100.583 51.6975 99.0254 52.8987 97.5788C54.0999 96.1321 56.4436 94.871 59.5939 93.9762C62.7442 93.0815 66.5393 92.5989 70.4355 92.5978C74.3316 92.5966 78.1286 93.0769 81.2824 93.9699L84.373 94.695" stroke="#4147D5" stroke-width="1.5" stroke-linecap="round"/>
</svg>
