<svg width="27" height="24" viewBox="0 0 27 24" fill="none" xmlns="http://www.w3.org/2000/svg">
<g id="Group 972">
<path id="Intersect" d="M1.56982 19.746C1.68458 20.7046 2.45268 21.4604 3.413 21.5597C5.81223 21.8077 8.3181 22.1237 10.8959 22.1237C13.4736 22.1237 15.9795 21.8077 18.3787 21.5597C19.339 21.4604 20.1071 20.7046 20.2219 19.746C20.4811 17.5813 20.7917 15.323 20.7917 13.0013C20.7917 10.6796 20.4811 8.42131 20.2219 6.25657C20.1071 5.29798 19.339 4.54217 18.3787 4.44291C15.9795 4.1949 13.4736 3.87891 10.8959 3.87891C8.3181 3.87891 5.81223 4.1949 3.413 4.4429C2.45268 4.54217 1.68458 5.29798 1.56982 6.25657C1.31065 8.42131 1 10.6796 1 13.0013C1 15.323 1.31065 17.5813 1.56982 19.746Z" fill="#435FE1" fill-opacity="0.1"/>
<path id="Intersect_2" d="M9.44027 3.91113C7.37342 3.99695 5.35815 4.24271 3.41298 4.44378C2.45266 4.54305 1.68458 5.29886 1.56982 6.25745C1.31065 8.42218 1 10.6804 1 13.0022C1 15.3239 1.31065 17.5822 1.56982 19.7469C1.68458 20.7055 2.45268 21.4613 3.413 21.5606C5.81223 21.8086 8.3181 22.1246 10.8959 22.1246C13.4736 22.1246 15.9795 21.8086 18.3787 21.5606C19.339 21.4613 20.1071 20.7054 20.2219 19.7468C20.4209 18.0844 20.6503 16.3668 20.7461 14.6076" stroke="#4147D5" stroke-width="2" stroke-linecap="round"/>
<g id="Vector">
<path d="M18.209 1.88381L11.3263 9.08298L10.4049 13.0779C10.2566 13.7207 10.9835 14.3289 11.6642 14.1316L15.9768 12.8818L22.7605 6.3016C23.972 5.1265 23.7468 3.04687 22.2784 1.84961C20.9972 0.804936 19.2262 0.819822 18.209 1.88381Z" fill="#D7E0FF"/>
<path d="M18.209 1.88381L11.3263 9.08298L10.4049 13.0779C10.2566 13.7207 10.9835 14.3289 11.6642 14.1316L15.9768 12.8818L22.7605 6.3016C23.972 5.1265 23.7468 3.04687 22.2784 1.84961C20.9972 0.804936 19.2262 0.819822 18.209 1.88381Z" stroke="#4147D5" stroke-width="2" stroke-linecap="round" stroke-linejoin="round"/>
</g>
</g>
</svg>
