<svg width="125" height="239" viewBox="0 0 125 239" fill="none" xmlns="http://www.w3.org/2000/svg">
<path d="M51.8279 119.383C51.911 119.002 51.7448 118.594 52.0772 118.267C52.3542 117.477 52.3542 116.633 52.6589 115.843C53.2961 112.984 53.9055 110.097 54.598 107.237C55.2905 104.351 56.0938 101.491 56.814 98.6047C57.5065 95.827 58.1436 93.022 58.8084 90.2442C59.3624 89.9719 59.9718 90.0808 60.5812 90.0808C68.1988 90.0536 75.8164 90.4349 83.4617 90.4076C85.6778 90.4076 87.9492 90.4076 90.1652 90.8434C90.83 91.388 90.6915 92.1233 90.6084 92.8586C90.1929 93.9479 89.2788 94.6832 88.5032 95.5002C85.1791 99.0676 81.8828 102.662 78.5311 106.203C76.7028 108.136 74.93 110.097 73.1572 112.03C72.0215 113.283 72.0215 114.699 73.2957 115.897C75.6502 118.131 78.1155 120.227 80.5255 122.406C83.2124 124.803 85.8994 127.226 88.5863 129.623C89.5835 130.521 90.6361 131.284 91.578 132.237C92.0489 132.727 92.5475 133.217 92.6029 133.953C93.0461 137.52 93.0461 141.088 93.2123 144.655C93.4339 148.958 93.7663 153.234 93.794 157.536C93.794 157.972 93.9048 158.435 93.6555 158.871C93.1015 159.306 92.4366 159.225 91.8272 159.252C90.0821 159.279 88.337 159.197 86.6196 159.415C80.664 159.116 74.6807 159.361 68.7252 159.279C67.6171 159.252 66.5091 159.306 65.4288 159.252C62.2155 159.225 59.03 158.952 55.8168 158.843C52.9359 158.735 50.0551 158.462 47.1465 158.462C46.2324 158.462 45.3183 158.408 44.4042 158.272C43.4347 158.135 42.8807 157.7 43.0746 156.665C43.7948 151.845 45.1521 147.133 46.2879 142.395C48.033 135.042 49.7227 127.689 51.6063 120.391C51.7171 120.064 51.5232 119.683 51.8279 119.383Z" fill="#8F3600"/>
<path d="M90.3036 93.1851C90.3036 92.477 90.2759 91.7417 90.2759 91.0337C89.9158 90.598 90.0543 90.0805 90.082 89.5903C90.6914 82.0469 91.3562 74.5034 91.9933 66.9599C92.4919 60.996 92.9905 55.032 93.4891 49.068C93.9046 44.0572 94.2924 39.0464 94.8464 34.0356C94.9018 33.5726 94.9019 33.1369 95.2343 32.7556C96.3146 32.1565 97.4226 32.2382 98.5306 32.6467C98.8353 32.919 98.7799 33.3003 98.7799 33.6543C98.7245 38.9102 98.7522 44.1661 98.7799 49.4493C98.7799 50.7565 98.4198 51.5462 97.0348 51.9275C95.6775 52.2815 94.9573 53.3436 94.9019 54.7869C94.9019 54.9775 94.9019 54.7324 94.9019 54.9231C94.5695 59.6343 96.7578 59.8522 100.553 59.4982C101.024 59.4437 101.411 59.1714 101.771 58.8718C103.877 57.0745 103.24 52.8806 100.636 51.9002C99.5001 51.4918 99.0569 50.8654 99.0569 49.6944C99.0846 44.5202 99.0569 39.346 99.0569 34.1717C99.0569 33.7088 99.0569 33.2731 99.2785 32.8373C99.5001 32.5105 99.8602 32.4016 100.248 32.4016C103.683 32.4561 107.145 31.9931 110.553 32.8918C114.874 34.0356 118.198 36.3504 120.026 40.4897C120.275 41.0888 120.497 41.6607 120.442 42.3143C120.275 44.6563 120.137 46.9984 119.998 49.3404C119.417 58.654 118.835 67.9676 118.253 77.2539C117.893 83.2179 117.505 89.1819 117.118 95.1458C116.951 97.4334 116.951 97.4334 114.514 97.161C111.55 96.807 108.558 96.5347 105.566 96.1534C104.514 96.0173 104.043 96.2351 103.932 97.3517C103.821 98.6044 103.655 99.8843 102.824 100.946C102.27 101.409 101.882 101.001 101.522 100.674C99.5001 98.9584 97.5334 97.1883 95.5666 95.3909C95.0957 94.9552 94.5971 94.5467 94.1539 94.0837C93.0459 93.0761 91.6886 93.0761 90.3036 93.1851Z" fill="#435FE1"/>
<path d="M43.2131 156.392C43.0469 157.4 43.3517 157.863 44.5428 157.918C49.3349 158.081 54.1271 158.353 58.9192 158.598C61.0244 158.707 63.1574 158.816 65.2626 158.925C66.0659 159.524 66.149 160.477 66.4814 161.322C69.3345 168.647 72.1599 175.973 75.0408 183.271C76.2596 186.485 77.4231 189.698 78.8358 192.857C79.0297 193.429 79.2236 194.028 79.4452 194.6C81.6335 200.264 83.8772 205.874 86.0378 211.539C86.1487 211.784 86.2317 212.029 86.3425 212.274C86.8411 213.772 87.4505 215.215 88.0045 216.659C88.1153 217.094 88.3647 217.503 88.2539 217.966C88.2539 218.075 88.2539 218.156 88.2539 218.265C87.7553 218.701 87.1458 218.674 86.5641 218.674C80.11 218.701 73.6558 218.674 67.2016 218.674C66.5645 218.674 65.8997 218.755 65.4011 218.211C63.2682 212.819 61.1352 207.454 59.0023 202.062C55.983 194.518 52.936 187.002 49.8889 179.459C48.033 174.884 46.2048 170.281 44.3765 165.706C43.7394 164.127 43.2962 162.465 43.1854 160.75C42.9361 160.232 43.2686 159.633 42.9639 159.116C42.9639 158.244 42.9639 157.346 42.9639 156.474C43.0193 156.284 43.1023 156.256 43.2131 156.392Z" fill="#FD9993"/>
<path d="M95.2625 32.783C94.8746 37.7666 94.4869 42.7229 94.0714 47.6793C93.462 54.8143 92.8525 61.9492 92.2431 69.0842C91.606 76.4098 90.9412 83.7082 90.3041 91.0338C83.6283 90.9248 76.9247 90.9249 70.2489 90.707C66.8972 90.5981 63.5176 90.5981 60.1659 90.5164C59.695 90.5164 59.2517 90.5164 58.8362 90.244C58.6977 89.9717 58.7809 89.7811 59.0302 89.6177C60.5537 83.8443 63.0745 78.4523 65.4567 73.0057C70.2212 62.1399 75.512 51.4919 79.9164 40.4626C80.7751 38.3112 81.523 36.1054 82.3817 33.954C82.6033 33.4094 82.7141 32.8102 83.3236 32.5107C84.2931 32.2383 85.2626 32.3745 86.2598 32.3473C88.7528 32.2928 91.2736 32.32 93.7667 32.32C94.2099 32.32 94.6808 32.32 95.0963 32.5651C95.1517 32.6741 95.2071 32.7285 95.2625 32.783Z" fill="black"/>
<path d="M83.1015 32.8647C78.5309 46.0998 72.2429 58.5996 66.5643 71.3446C64.0436 76.9817 61.6336 82.6461 59.5561 88.4467C59.4176 88.8552 59.4176 89.3454 59.0021 89.645C59.2514 87.548 59.5007 85.4239 59.8054 82.9729C58.1433 84.7703 56.6198 86.377 54.293 86.7311C53.3789 86.8672 52.4648 86.8672 51.5507 86.7311C50.5812 86.6494 49.7224 86.3226 48.8637 85.8868C44.4316 83.5993 39.9718 81.339 35.5398 79.0514C34.5702 78.5612 33.6561 77.9621 32.6589 77.5264C31.9941 77.2268 31.6894 76.8456 31.911 76.1375C34.127 72.1343 36.3431 68.1583 38.5868 64.1823C39.6394 62.5756 39.861 62.4939 41.5508 63.4198C43.4344 64.4819 45.3734 65.4351 47.2016 66.5516C48.1712 67.1507 48.7252 66.9873 49.3346 66.0614C53.0742 60.397 56.7306 54.6781 60.4702 49.0137C61.8275 46.944 63.1294 44.8743 64.5145 42.8319C65.3178 41.6064 65.9826 40.3265 66.6197 39.0193C68.5311 34.8799 72.0213 32.8647 76.5365 32.4562C78.3647 32.2928 80.2207 32.4017 82.0766 32.429C82.409 32.4562 82.8522 32.429 83.1015 32.8647Z" fill="#435FE1"/>
<path d="M86.7578 159.088C89.0015 158.734 91.2452 159.143 93.489 158.871C94.1538 159.225 94.043 159.878 94.043 160.423C94.1815 167.04 94.6801 173.631 94.9571 180.221C95.0679 182.781 95.0402 185.368 95.3726 187.955C95.5111 189.153 96.0097 189.48 97.1177 189.453C100.109 189.426 103.101 189.426 106.12 189.453C106.813 189.453 107.505 189.371 108.115 189.834C108.447 190.27 108.447 190.76 108.447 191.25C108.447 197.977 108.502 204.703 108.419 211.43C108.419 211.675 108.392 211.947 108.419 212.192C108.447 213.69 108.475 215.161 108.392 216.658C108.364 216.985 108.309 217.312 108.004 217.557C107.976 217.775 107.976 217.966 107.948 218.184C107.478 218.646 106.868 218.619 106.259 218.619C101.107 218.646 95.982 218.646 90.8297 218.619C90.2757 218.619 89.7217 218.646 89.2508 218.238C89.1123 217.966 88.8353 217.911 88.5583 217.857C88.2813 217.53 88.2259 217.121 88.1982 216.74C88.2259 215.215 87.755 213.745 87.8935 212.22C87.8935 211.974 87.8935 211.729 87.8935 211.457C87.8104 207.1 87.6442 202.77 87.5057 198.413C87.3395 193.81 87.3395 189.181 87.0348 184.551C87.0071 184.143 87.0348 183.734 87.0625 183.326C87.0625 179.35 86.8409 175.374 86.6747 171.398C86.5362 167.748 86.6747 164.072 86.3423 160.423C86.3423 159.987 86.3423 159.497 86.7578 159.088Z" fill="#FD9993"/>
<path d="M65.4009 218.183C73.0185 218.211 80.6637 218.211 88.2813 218.238C86.8409 224.447 85.4005 230.683 83.9601 236.892C83.877 237.246 83.9323 237.6 83.9046 237.982C83.6276 238.445 83.1567 238.227 82.7966 238.227C70.47 238.254 58.1433 238.254 45.8167 238.227C45.4289 238.227 44.9857 238.417 44.6533 238.009L44.7087 237.954L44.6533 237.9C44.9303 237.464 44.6533 236.947 44.8749 236.484C45.4289 233.216 47.2571 230.792 49.9718 228.94C53.7113 226.38 57.4232 223.793 61.135 221.206C62.52 220.199 63.9605 219.191 65.4009 218.183Z" fill="black"/>
<path d="M98.5305 32.8375C97.4502 32.8103 96.3699 32.8103 95.2618 32.783L95.2896 32.8103C94.9018 32.4018 94.8464 31.9116 94.9018 31.4214C95.3727 26.3561 93.7937 21.781 91.6608 17.2876C90.442 14.7005 89.3063 12.0589 88.3091 9.39012C87.7551 7.91955 86.8132 7.26597 85.3174 7.32043C82.9629 7.40213 80.6361 6.93917 78.2815 6.99364C77.4228 7.02087 76.481 6.96641 76.1763 5.8771C76.3425 3.23552 77.8383 1.32923 80.7191 0.811812C85.4005 -0.059635 90.0819 -0.440892 94.8187 0.757347C99.4447 1.92835 102.104 4.56993 102.575 9.28119C102.603 9.60798 102.519 9.90754 102.298 10.1526C102.436 12.6853 102.298 15.2179 101.771 17.7233C101.688 18.1046 101.384 18.5675 102.242 18.6765C108.281 19.4935 110.165 21.5631 110.359 27.5271C110.359 27.6088 110.386 27.6905 110.414 27.7722C117.173 26.4106 120.691 27.3637 122.658 31.2035C124.264 34.3353 123.987 39.7818 120.497 42.3417C119.832 41.552 119.804 40.5171 119.306 39.6457C116.73 35.3974 112.796 33.246 107.921 32.8647C105.151 32.6469 102.325 32.8375 99.5278 32.8647C99.1122 33.0554 98.8075 33.0826 98.5305 32.8375Z" fill="black"/>
<path d="M89.3068 218.292C95.5394 218.265 101.744 218.265 107.977 218.238C110.664 224.583 113.378 230.928 116.065 237.273C116.149 237.464 116.287 237.655 116.426 237.845C116.315 238.39 115.872 238.227 115.539 238.227C105.484 238.227 95.4286 238.227 85.3733 238.227C85.1517 238.227 84.9024 238.254 84.8193 237.982C85.7889 233.733 86.7584 229.485 87.7556 225.237C88.2542 222.922 88.7805 220.607 89.3068 218.292Z" fill="black"/>
<path d="M38.7523 64.3459C36.7025 68.0495 34.6804 71.7532 32.6306 75.4568C32.4644 75.7564 31.855 76.1649 31.855 76.1649C31.855 76.1649 18.5102 69.0844 16.1491 67.6138C13.788 66.1431 6.56487 60.8328 2.38216 56.6935C0.360055 54.6782 0.581611 50.5116 2.68682 48.7143C3.21312 48.5781 3.57323 48.8504 3.93333 49.15C5.29064 50.321 5.07349 50.0758 7.38827 51.1651C9.70305 52.2544 9.77808 49.2045 9.77808 49.2045C10.249 49.0955 10.6922 49.1772 11.1077 49.3679C17.6317 52.1375 25.4073 56.0893 30.0823 58.6542C34.7572 61.2191 35.0682 61.5954 37.5058 63.1204C38.0321 63.4472 38.5861 63.6923 38.7523 64.3459Z" fill="#FD9993"/>
<path d="M102.436 101.137C103.212 99.8025 103.544 98.3592 103.516 96.8614C103.489 95.7448 103.987 95.5815 104.929 95.7176C108.198 96.0989 111.494 96.4529 114.762 96.8342C116.729 97.052 116.729 97.0793 117.062 95.2002C116.895 99.0128 116.757 102.825 116.591 106.638C116.563 107.183 116.591 107.727 116.591 108.245C116.812 108.49 116.923 108.789 116.923 109.143C117.006 110.641 116.535 112.139 116.674 113.637C116.701 115.87 116.397 118.076 116.314 120.282C116.231 122.76 115.316 124.911 112.851 126.055C111.328 126.763 110.801 126.463 110.607 124.829C110.607 122.515 110.524 120.227 110.801 117.912C110.469 119.955 110.247 121.997 110.303 124.094C110.33 124.857 110.469 125.646 109.915 126.3C109.112 126.681 108.281 126.681 107.477 126.327C106.702 125.32 107.006 124.149 107.145 123.059C107.367 121.262 107.228 119.465 107.173 117.667C106.896 120.39 107.256 123.168 106.452 125.837C105.261 126.382 104.569 125.592 103.932 124.829C103.405 124.203 103.128 123.413 102.962 122.596C102.63 120.853 102.187 119.138 102.187 117.368C102.491 116.551 102.63 115.706 102.602 114.835C102.491 112.711 102.768 110.587 102.741 108.463C102.685 110.042 102.297 111.594 102.297 113.174C102.297 113.855 102.408 114.535 102.048 115.162C101.328 115.543 101.273 114.862 101.134 114.535C99.666 111.431 99.112 108.217 100.552 104.95C101.162 103.697 101.3 102.172 102.436 101.137Z" fill="#FD9993"/>
<path d="M43.2126 156.393C43.1295 156.42 43.0186 156.42 42.9355 156.447C43.0741 155.331 43.1018 154.187 43.3511 153.125C45.5394 144.111 47.7832 135.124 49.9992 126.11C50.5532 123.849 50.9133 121.535 51.7997 119.383C51.2457 123.005 50.2208 126.518 49.3898 130.086C47.3954 138.855 45.2901 147.624 43.2126 156.393Z" fill="#FCFCFC"/>
<path d="M44.626 238.009C45.0692 238.063 45.5401 238.145 45.9833 238.145C58.1714 238.145 70.3318 238.145 82.5199 238.145C82.9908 238.145 83.4341 238.227 83.8773 237.982C83.628 238.554 83.1017 238.363 82.6862 238.363C70.4149 238.363 58.116 238.363 45.8448 238.363C45.4293 238.363 44.903 238.554 44.626 238.009Z" fill="#FCFCFC"/>
<path d="M84.791 237.982C85.2619 238.254 85.7882 238.145 86.2868 238.145C95.8711 238.145 105.455 238.145 115.04 238.145C115.483 238.145 116.065 238.445 116.397 237.845C116.563 238.717 115.871 238.363 115.566 238.363C112.907 238.39 110.22 238.39 107.561 238.39C100.469 238.39 93.3781 238.39 86.2868 238.39C85.7605 238.363 85.1234 238.635 84.791 237.982Z" fill="#FCFCFC"/>
<path d="M4.73701 237.846C3.15801 238.227 1.57899 238.254 0 237.846L0.0277287 237.818C1.57902 237.246 3.15801 237.219 4.73701 237.846Z" fill="#FCFCFC"/>
<path d="M52.6587 115.843C52.6587 116.687 52.5201 117.504 52.0769 118.266C52.0492 117.395 52.1324 116.551 52.6587 115.843Z" fill="#FCFCFC"/>
<path d="M51.5225 86.7583C52.4365 86.7583 53.3506 86.7583 54.2646 86.7583C53.3506 87.1124 52.4365 87.1124 51.5225 86.7583Z" fill="#FCFCFC"/>
<path d="M42.936 159.115C43.2958 159.633 43.1575 160.205 43.1575 160.749C42.7423 160.259 43.0191 159.66 42.936 159.115Z" fill="#FCFCFC"/>
<path d="M44.8192 236.457C44.7362 236.92 44.6808 237.41 44.5977 237.873C44.6254 237.41 44.4315 236.892 44.8192 236.457Z" fill="#FCFCFC"/>
<path d="M107.976 189.916C104.098 189.889 100.248 189.834 96.3698 189.889C95.2895 189.916 95.0125 189.589 94.9571 188.527C94.6247 180.793 94.2369 173.086 93.8491 165.352C93.7383 163.173 93.5998 161.022 93.489 158.843C93.1012 150.401 92.6857 141.959 92.2979 133.544C93.5998 133.817 94.3477 134.824 95.2341 135.614C97.2285 137.411 99.1953 139.263 101.273 140.979C102.741 142.177 104.098 142.068 105.372 140.652C108.226 137.466 111.162 134.334 114.126 131.229C114.486 130.848 114.763 130.086 115.538 130.685C116.231 132.564 116.342 134.579 116.619 136.54C117.81 144.955 119.139 153.37 120.331 161.812C120.786 165.173 117.348 140.475 121.189 167.286C121.383 168.729 121.633 170.145 121.799 171.588C122.954 180.903 122.226 171.418 124.264 188.282C124.458 189.889 124.153 190.243 122.519 190.27C118.17 190.297 113.849 190.297 109.5 190.27C108.973 190.324 108.419 190.27 107.976 189.916Z" fill="#435FE1"/>
<path d="M115.234 130.549C112.131 133.898 109.001 137.221 105.899 140.57C104.07 142.558 102.741 142.722 100.719 140.979C97.8933 138.528 95.0678 136.022 92.2701 133.571C89.5832 130.821 86.6192 128.397 83.766 125.837C80.1927 122.597 76.5362 119.383 72.9906 116.115C71.6333 114.89 71.6333 113.229 72.8521 111.894C78.3645 105.93 83.8769 99.9934 89.4169 94.0294C89.694 93.7298 89.9986 93.4575 90.3033 93.1852C91.7438 92.3954 92.9903 92.695 94.1814 93.7571C96.9237 96.2353 99.6661 98.659 102.436 101.11C101.744 103.016 100.885 104.868 100.359 106.802C99.5553 109.797 100.525 112.548 101.882 115.217C102.547 115.816 102.187 116.687 102.464 117.422C102.741 119.111 103.018 120.799 103.323 122.488C103.627 124.203 104.514 125.483 106.342 125.919C106.702 126.055 107.09 126.191 107.478 126.137C108.281 126.137 109.084 126.137 109.86 126.137C110.303 126.219 110.358 125.946 110.442 125.619C110.525 125.32 110.414 124.884 110.94 124.884C110.829 126.11 111.328 126.327 112.436 125.837C114.32 124.966 115.566 123.604 115.788 121.535C116.065 118.947 116.176 116.333 116.342 113.719C117.311 113.637 117.644 114.318 117.948 115.026C118.198 115.325 118.419 115.652 118.807 115.788C120.635 116.578 121.937 118.049 122.99 119.601C123.682 120.636 123.461 121.997 122.547 123.005C121.66 123.985 120.885 125.075 119.915 125.946C119.583 126.246 119.25 126.545 118.946 126.899C117.838 128.234 116.785 129.623 115.234 130.549Z" fill="#202B6D"/>
<path d="M86.7576 159.088C87.0069 166.632 87.2562 174.148 87.5055 181.691C87.5332 182.236 87.5055 182.781 87.5055 183.325C87.09 183.761 86.536 183.788 85.982 183.788C83.7937 183.788 81.6053 183.843 79.417 183.761C79.1677 183.761 78.8907 183.761 78.6414 183.761C77.3672 183.679 76.0376 184.115 74.8465 183.353C72.9905 178.669 71.1346 174.012 69.3064 169.328C67.9491 165.869 66.6471 162.383 65.3452 158.925C72.1872 158.925 79.0292 158.925 85.8435 158.952C86.1205 158.952 86.4252 159.034 86.7576 159.088Z" fill="#435FE1"/>
<path d="M98.5295 32.8374C98.8342 32.6195 99.1112 32.7557 99.4159 32.8646C99.4159 38.529 99.4436 44.1935 99.4159 49.8579C99.4159 50.7565 99.4713 51.3557 100.635 51.4918C101.992 51.6552 102.823 52.5811 103.128 53.8883C103.405 55.0865 103.432 56.3393 103.128 57.5103C102.768 59.0353 101.521 59.934 99.9145 59.9884C99.8591 59.9884 99.8314 59.9884 99.776 59.9884C95.3717 60.288 94.1806 58.9808 94.4022 54.7598C94.513 52.9079 95.4271 51.6008 97.3107 51.3557C98.3356 51.2195 98.3356 50.7565 98.3356 50.0213C98.3079 44.7926 98.3356 39.5911 98.3356 34.3624C98.3356 33.8995 98.2802 33.3548 98.5295 32.8374Z" fill="#FDFDFE"/>
<path d="M104.652 77.2541C104.652 78.4795 104.652 79.705 104.652 80.9577C104.596 80.9577 104.569 80.9577 104.513 80.9577C104.513 79.7322 104.513 78.4795 104.513 77.2541C104.541 77.2268 104.596 77.2268 104.652 77.2541Z" fill="#81B1D3"/>
<path d="M86.1759 32.783C86.1759 31.2852 86.0928 29.7874 86.2036 28.3168C86.2867 27.173 85.6773 26.9552 84.7909 26.819C82.4086 26.4377 80.1371 25.8114 78.1704 24.3408C75.982 22.7069 75.2341 20.3921 75.0679 17.8322C74.9571 16.1438 75.2341 14.5098 75.4003 12.8486C75.7327 12.6852 76.3144 12.9303 76.4252 12.4401C76.5637 11.8682 75.8158 11.8955 75.5942 11.5414C75.5942 11.024 75.5942 10.5338 75.5942 10.0164C75.6496 9.82579 75.7328 9.60792 75.7882 9.41729C75.9821 8.27352 76.1483 7.10251 76.3422 5.95874C76.4807 6.77572 77.2008 6.53063 77.6718 6.55786C80.608 6.74849 83.5443 6.93912 86.5083 7.04805C87.4224 7.07528 87.8656 7.40207 88.198 8.24629C90.2202 13.1209 92.3531 17.9956 94.403 22.8703C95.0955 24.5315 95.1232 26.3288 95.2617 28.0717C95.3725 29.6512 95.2617 31.2307 95.2617 32.8102C92.27 32.8102 89.223 32.783 86.1759 32.783Z" fill="#FD9993"/>
<path d="M96.4253 21.1004C96.4253 18.3226 96.4253 15.5994 96.4253 12.9033C99.14 13.1756 101.135 14.7279 101.328 16.6614C101.522 18.6494 99.8326 20.2289 96.4253 21.1004Z" fill="#FC9993"/>
<path d="M107.505 126.164C106.951 126.927 106.619 126.627 106.37 125.946C106.48 123.495 106.591 121.072 106.702 118.621C106.73 118.212 106.702 117.804 106.757 117.395C106.785 117.041 106.785 116.605 107.284 116.578C107.921 116.578 107.81 117.096 107.81 117.477C107.727 119.928 107.616 122.351 107.533 124.802C107.478 125.265 107.505 125.701 107.505 126.164Z" fill="#050303"/>
<path d="M102.464 117.45C101.467 116.932 102.104 115.979 101.882 115.244C101.993 112.956 102.076 110.641 102.187 108.354C102.215 107.945 102.048 107.319 102.741 107.346C103.406 107.374 103.267 107.973 103.267 108.408C103.184 111.023 103.073 113.637 102.962 116.251C102.962 116.714 102.852 117.15 102.464 117.45Z" fill="#060404"/>
<path d="M110.968 124.911C110.691 125.265 110.857 125.701 110.801 126.082C110.774 126.355 110.774 126.654 110.414 126.682C110.053 126.709 109.97 126.409 109.887 126.164C109.998 123.414 110.081 120.663 110.22 117.885C110.247 117.45 109.998 116.714 110.746 116.714C111.494 116.714 111.3 117.395 111.272 117.858C111.189 120.227 111.078 122.569 110.968 124.911Z" fill="#070404"/>
<path d="M98.7245 58.9811C95.9821 58.9811 95.5112 58.4909 95.5112 55.6859C95.5112 52.9626 96.093 52.418 98.9185 52.418C101.522 52.418 102.187 53.1532 102.187 55.931C102.215 58.4364 101.578 58.9811 98.7245 58.9811Z" fill="#435FE1"/>
<path d="M75.6218 11.5415C76.1203 11.4326 76.6187 11.3781 76.9234 11.9228C77.0895 12.2768 77.0342 12.6036 76.7573 12.9032C76.2864 13.3661 75.871 13.0938 75.4279 12.8487C75.2341 12.3858 75.2894 11.95 75.6218 11.5415Z" fill="#0F0A09"/>
<path d="M86.259 12.4127C86.2036 12.9029 85.9543 13.2297 85.4003 13.257C84.9018 13.257 84.5971 12.9846 84.5417 12.5489C84.4863 12.0315 84.8187 11.6502 85.3172 11.5957C85.8712 11.5413 86.1759 11.8681 86.259 12.4127Z" fill="#0F0909"/>
</svg>
