<svg width="70" height="60" viewBox="0 0 70 60" fill="none" xmlns="http://www.w3.org/2000/svg">
    <ellipse cx="34.7469" cy="43.2233" rx="34.5818" ry="16.1804" fill-opacity="0.2"/>
    <ellipse cx="34.1892" cy="39.876" rx="22.8686" ry="11.7168" fill-opacity="0.5"/>
    <ellipse cx="34.747" cy="37.0856" rx="11.1554" ry="4.46355"/>
    <path d="M38.198 29.1722C37.4533 30.6173 35.3871 30.6173 34.6424 29.1722L25.8469 12.1046C25.161 10.7735 26.1273 9.18842 27.6247 9.18842L45.2157 9.18842C46.7131 9.18842 47.6795 10.7735 46.9935 12.1046L38.198 29.1722Z"/>
    <path d="M46.4602 9.74707L43.1136 8.07324C39.5811 14.5826 33.0737 27.7129 33.0737 28.1592C33.0737 28.7172 34.8059 29.5835 35.3048 29.8331C36.4204 30.391 37.7218 29.6471 38.0937 29.2751C41.0685 23.8817 47.018 12.8716 47.018 11.9788V10.863C47.018 10.4166 46.6462 9.93306 46.4602 9.74707Z" fill-opacity="0.5"/>
    <path d="M35.9671 28.057C35.2224 29.5021 33.1562 29.5021 32.4114 28.057L23.6159 10.9894C22.93 9.65827 23.8963 8.07319 25.3938 8.07319L42.9848 8.07319C44.4822 8.07319 45.4485 9.65827 44.7626 10.9894L35.9671 28.057Z"/>
</svg>
